<svg width="33" height="31" viewBox="0 0 33 31" fill="none" xmlns="http://www.w3.org/2000/svg">
<path fill-rule="evenodd" clip-rule="evenodd" d="M7.04616 11.9977V6H0V8.9988H4.02639V17.9953L7.04622 23.993L26.1716 17.9953V11.9977H7.04616ZM9.56046 25.004C8.17062 25.004 7.04398 26.1229 7.04398 27.503C7.04398 28.8831 8.17067 30.002 9.56046 30.002C10.9502 30.002 12.0769 28.8831 12.0769 27.503C12.0769 26.1229 10.9503 25.004 9.56046 25.004ZM18.1208 27.503C18.1208 26.1229 19.2474 25.004 20.6373 25.004C22.027 25.004 23.1537 26.1229 23.1537 27.503C23.1537 28.8831 22.0271 30.002 20.6373 30.002C19.2475 30.002 18.1208 28.8831 18.1208 27.503Z" fill="red"/>
<circle cx="24.5" cy="8.5" r="7.5" fill="#DA291C" stroke="black" stroke-width="2"/>
<path d="M24.0813 12H25.2713V4.8H24.4713L22.2513 5.62V6.61L24.0813 5.98V12Z" fill="white"/>
</svg>
