<svg width="21" height="21" viewBox="0 0 21 21" fill="none" xmlns="http://www.w3.org/2000/svg">
<g clip-path="url(#clip0_3_924)">
<path d="M15.1615 0.93647L12.5697 0.932312C9.65802 0.932312 7.77634 2.86288 7.77634 5.85094V8.11876H5.17046C4.94529 8.11876 4.76294 8.30131 4.76294 8.52649V11.8123C4.76294 12.0375 4.94549 12.2198 5.17046 12.2198H7.77634V20.511C7.77634 20.7362 7.95868 20.9185 8.18386 20.9185H11.5838C11.809 20.9185 11.9913 20.7359 11.9913 20.511V12.2198H15.0382C15.2634 12.2198 15.4457 12.0375 15.4457 11.8123L15.447 8.52649C15.447 8.41837 15.4039 8.31483 15.3276 8.23831C15.2513 8.1618 15.1473 8.11876 15.0392 8.11876H11.9913V6.1963C11.9913 5.27229 12.2115 4.80322 13.4152 4.80322L15.1611 4.80259C15.386 4.80259 15.5684 4.62003 15.5684 4.39506V1.344C15.5684 1.11923 15.3862 0.936886 15.1615 0.93647Z" fill="#BBBBBB"/>
</g>
<defs>
<clipPath id="clip0_3_924">
<rect width="19.9862" height="19.9862" fill="white" transform="translate(0.172607 0.932312)"/>
</clipPath>
</defs>
</svg>
