<svg width="113" height="34" viewBox="0 0 113 34" fill="none" xmlns="http://www.w3.org/2000/svg">
<path d="M108.769 33.9807H5.06526C2.7423 33.9807 0.917114 32.1554 0.917114 29.8324V4.9425C0.917114 2.61945 2.7423 0.794189 5.06526 0.794189H108.769C111.092 0.794189 112.917 2.61945 112.917 4.9425V29.8324C112.917 32.1554 111.092 33.9807 108.769 33.9807Z" fill="white"/>
<path d="M40.2416 9.25681C40.2416 9.92054 40.0756 10.5013 39.6608 10.9161C39.1631 11.4139 38.5823 11.6628 37.8356 11.6628C37.089 11.6628 36.5082 11.4139 36.0105 10.9161C35.5127 10.4183 35.2638 9.83757 35.2638 9.09087C35.2638 8.34418 35.5127 7.76341 36.0105 7.26562C36.5082 6.76782 37.089 6.51892 37.8356 6.51892C38.1675 6.51892 38.4993 6.60189 38.8312 6.76782C39.1631 6.93375 39.4119 7.09968 39.5779 7.34858L39.1631 7.76341C38.8312 7.34858 38.4164 7.18265 37.8356 7.18265C37.3379 7.18265 36.8401 7.34858 36.5082 7.76341C36.0934 8.09528 35.9275 8.59308 35.9275 9.17384C35.9275 9.75461 36.0934 10.2524 36.5082 10.5843C36.9231 10.9161 37.3379 11.165 37.8356 11.165C38.4164 11.165 38.8312 10.9991 39.246 10.5843C39.4949 10.3354 39.6608 10.0035 39.6608 9.58867H37.8356V8.92494H40.2416V9.25681V9.25681ZM44.0579 7.18265H41.8179V8.75901H43.8919V9.33977H41.8179V10.9161H44.0579V11.5799H41.1542V6.60189H44.0579V7.18265ZM46.7956 11.5799H46.1319V7.18265H44.7216V6.60189H48.206V7.18265H46.7956V11.5799ZM50.6119 11.5799V6.60189H51.2756V11.5799H50.6119ZM54.0964 11.5799H53.4327V7.18265H52.0223V6.60189H55.4238V7.18265H54.0134V11.5799H54.0964ZM61.9779 10.9161C61.4801 11.4139 60.8994 11.6628 60.1527 11.6628C59.406 11.6628 58.8253 11.4139 58.3275 10.9161C57.8297 10.4183 57.5808 9.83757 57.5808 9.09087C57.5808 8.34418 57.8297 7.76341 58.3275 7.26562C58.8253 6.76782 59.406 6.51892 60.1527 6.51892C60.8994 6.51892 61.4801 6.76782 61.9779 7.26562C62.4756 7.76341 62.7245 8.34418 62.7245 9.09087C62.7245 9.83757 62.4756 10.4183 61.9779 10.9161ZM58.8253 10.5013C59.1571 10.8332 59.6549 11.0821 60.1527 11.0821C60.6505 11.0821 61.1482 10.9161 61.4801 10.5013C61.8119 10.1694 62.0608 9.67164 62.0608 9.09087C62.0608 8.51011 61.8949 8.01231 61.4801 7.68045C61.1482 7.34858 60.6505 7.09968 60.1527 7.09968C59.6549 7.09968 59.1571 7.26562 58.8253 7.68045C58.4934 8.01231 58.2445 8.51011 58.2445 9.09087C58.2445 9.67164 58.4105 10.1694 58.8253 10.5013ZM63.6371 11.5799V6.60189H64.3838L66.7897 10.5013V6.60189H67.4534V11.5799H66.7897L64.2179 7.51452V11.5799H63.6371V11.5799Z" fill="black"/>
<path d="M57.4149 18.8809C55.4238 18.8809 53.8475 20.3743 53.8475 22.4484C53.8475 24.4396 55.4238 26.016 57.4149 26.016C59.406 26.016 60.9823 24.5226 60.9823 22.4484C60.9823 20.2913 59.406 18.8809 57.4149 18.8809ZM57.4149 24.5226C56.3364 24.5226 55.4238 23.6099 55.4238 22.3654C55.4238 21.1209 56.3364 20.2083 57.4149 20.2083C58.4934 20.2083 59.406 21.038 59.406 22.3654C59.406 23.6099 58.4934 24.5226 57.4149 24.5226ZM49.6993 18.8809C47.7082 18.8809 46.1319 20.3743 46.1319 22.4484C46.1319 24.4396 47.7082 26.016 49.6993 26.016C51.6904 26.016 53.2667 24.5226 53.2667 22.4484C53.2667 20.2913 51.6904 18.8809 49.6993 18.8809ZM49.6993 24.5226C48.6208 24.5226 47.7082 23.6099 47.7082 22.3654C47.7082 21.1209 48.6208 20.2083 49.6993 20.2083C50.7779 20.2083 51.6904 21.038 51.6904 22.3654C51.6904 23.6099 50.7779 24.5226 49.6993 24.5226ZM40.4904 19.9594V21.4528H44.0579C43.9749 22.2825 43.643 22.9462 43.2282 23.361C42.7304 23.8588 41.9008 24.4396 40.4904 24.4396C38.2504 24.4396 36.5912 22.6973 36.5912 20.4572C36.5912 18.2171 38.3334 16.4748 40.4904 16.4748C41.6519 16.4748 42.5645 16.9726 43.2282 17.5534L44.3067 16.4748C43.3942 15.6452 42.2327 14.9814 40.5734 14.9814C37.5867 14.9814 35.0149 17.4704 35.0149 20.4572C35.0149 23.444 37.5867 25.933 40.5734 25.933C42.2327 25.933 43.3942 25.4352 44.3897 24.3566C45.3853 23.361 45.7171 21.9506 45.7171 20.8721C45.7171 20.5402 45.7171 20.2083 45.6342 19.9594H40.4904ZM78.1556 21.1209C77.8238 20.2913 76.9941 18.8809 75.169 18.8809C73.3438 18.8809 71.8504 20.2913 71.8504 22.4484C71.8504 24.4396 73.3438 26.016 75.3349 26.016C76.9112 26.016 77.9067 25.0204 78.2386 24.4396L77.0771 23.6099C76.6623 24.1907 76.1645 24.6055 75.3349 24.6055C74.5053 24.6055 74.0075 24.2737 73.5927 23.527L78.3216 21.5358L78.1556 21.1209ZM73.3438 22.2825C73.3438 20.955 74.4223 20.2083 75.169 20.2083C75.7497 20.2083 76.3304 20.5402 76.4964 20.955L73.3438 22.2825ZM69.4445 25.6841H71.0208V15.3133H69.4445V25.6841ZM66.9556 19.6276C66.5408 19.2127 65.8771 18.7979 65.0475 18.7979C63.3053 18.7979 61.646 20.3743 61.646 22.3654C61.646 24.3566 63.2223 25.85 65.0475 25.85C65.8771 25.85 66.5408 25.4352 66.8727 25.0204H66.9556V25.5182C66.9556 26.8456 66.209 27.5923 65.0475 27.5923C64.1349 27.5923 63.4712 26.9286 63.3053 26.3478L61.9778 26.9286C62.3927 27.8412 63.3882 29.0027 65.1304 29.0027C66.9556 29.0027 68.449 27.9242 68.449 25.3522V19.0468H66.9556V19.6276ZM65.1304 24.5226C64.0519 24.5226 63.1393 23.6099 63.1393 22.3654C63.1393 21.1209 64.0519 20.2083 65.1304 20.2083C66.209 20.2083 67.0386 21.1209 67.0386 22.3654C67.0386 23.6099 66.209 24.5226 65.1304 24.5226ZM85.3734 15.3133H81.6401V25.6841H83.2164V21.7847H85.3734C87.1156 21.7847 88.7749 20.5402 88.7749 18.549C88.7749 16.5578 87.1156 15.3133 85.3734 15.3133ZM85.4564 20.2913H83.2164V16.7237H85.4564C86.6178 16.7237 87.2815 17.7193 87.2815 18.466C87.1986 19.3787 86.5349 20.2913 85.4564 20.2913ZM94.9971 18.7979C93.8356 18.7979 92.6741 19.2957 92.2593 20.3743L93.6697 20.955C94.0015 20.3743 94.4993 20.2083 95.0801 20.2083C95.9097 20.2083 96.6564 20.7061 96.7393 21.5358V21.6187C96.4904 21.4528 95.8267 21.2039 95.163 21.2039C93.6697 21.2039 92.1764 22.0336 92.1764 23.527C92.1764 24.9374 93.4208 25.85 94.7482 25.85C95.8267 25.85 96.3245 25.3522 96.7393 24.8544H96.8223V25.6841H98.3156V21.7017C98.1497 19.8765 96.7393 18.7979 94.9971 18.7979ZM94.8312 24.5226C94.3334 24.5226 93.5867 24.2737 93.5867 23.6099C93.5867 22.7803 94.4993 22.5314 95.246 22.5314C95.9097 22.5314 96.2415 22.6973 96.6564 22.8632C96.4904 23.8588 95.6608 24.5226 94.8312 24.5226ZM103.542 19.0468L101.8 23.527H101.717L99.8919 19.0468H98.2327L100.97 25.3522L99.3941 28.8368H100.97L105.202 19.0468H103.542ZM89.6045 25.6841H91.1808V15.3133H89.6045V25.6841Z" fill="black"/>
<path d="M9.54523 7.0166C9.29634 7.2655 9.21338 7.68033 9.21338 8.17813V26.5137C9.21338 27.0115 9.3793 27.4263 9.62819 27.6752L9.71116 27.7582L19.9986 17.4704V17.3044L9.54523 7.0166Z" fill="url(#paint0_linear_3_936)"/>
<path d="M23.3171 20.9551L19.9156 17.5535V17.3046L23.3171 13.903L23.4001 13.9859L27.4653 16.309C28.6268 16.9727 28.6268 18.0513 27.4653 18.715L23.3171 20.9551V20.9551Z" fill="url(#paint1_linear_3_936)"/>
<path d="M23.4001 20.872L19.9157 17.3875L9.54529 27.7582C9.9601 28.1731 10.5408 28.1731 11.2875 27.8412L23.4001 20.872" fill="url(#paint2_linear_3_936)"/>
<path d="M23.4001 13.903L11.2875 7.01675C10.5408 6.60192 9.9601 6.68488 9.54529 7.09972L19.9157 17.3875L23.4001 13.903V13.903Z" fill="url(#paint3_linear_3_936)"/>
<path opacity="0.2" d="M23.3171 20.7891L11.2875 27.5923C10.6238 28.0071 10.0431 27.9242 9.62825 27.5923L9.54529 27.6753L9.62825 27.7582C10.0431 28.0901 10.6238 28.1731 11.2875 27.7582L23.3171 20.7891Z" fill="black"/>
<path opacity="0.2" d="M9.54523 27.5923C9.29634 27.3434 9.21338 26.9286 9.21338 26.4308V26.5137C9.21338 27.0115 9.3793 27.4264 9.62819 27.6753V27.5923H9.54523ZM27.4652 18.466L23.3171 20.7891L23.4 20.872L27.4652 18.549C28.046 18.2171 28.2949 17.8023 28.2949 17.3875C28.2949 17.8023 27.963 18.1341 27.4652 18.466V18.466Z" fill="black"/>
<path opacity="0.2" d="M11.2875 7.09968L27.4652 16.3089C27.963 16.6408 28.2949 16.9727 28.2949 17.3875C28.2949 16.9727 28.046 16.5578 27.4652 16.226L11.2875 7.01671C10.126 6.35298 9.21338 6.85078 9.21338 8.17824V8.26121C9.21338 7.01671 10.126 6.43595 11.2875 7.09968Z" fill="white"/>
<defs>
<linearGradient id="paint0_linear_3_936" x1="19.003" y1="8.02049" x2="5.07877" y2="21.9433" gradientUnits="userSpaceOnUse">
<stop stop-color="#00A0FF"/>
<stop offset="0.007" stop-color="#00A1FF"/>
<stop offset="0.26" stop-color="#00BEFF"/>
<stop offset="0.512" stop-color="#00D2FF"/>
<stop offset="0.76" stop-color="#00DFFF"/>
<stop offset="1" stop-color="#00E3FF"/>
</linearGradient>
<linearGradient id="paint1_linear_3_936" x1="28.9868" y1="17.3884" x2="8.91228" y2="17.3884" gradientUnits="userSpaceOnUse">
<stop stop-color="#FFE000"/>
<stop offset="0.409" stop-color="#FFBD00"/>
<stop offset="0.775" stop-color="#FFA500"/>
<stop offset="1" stop-color="#FF9C00"/>
</linearGradient>
<linearGradient id="paint2_linear_3_936" x1="21.5144" y1="19.2924" x2="2.63288" y2="38.1731" gradientUnits="userSpaceOnUse">
<stop stop-color="#FF3A44"/>
<stop offset="1" stop-color="#C31162"/>
</linearGradient>
<linearGradient id="paint3_linear_3_936" x1="6.97095" y1="0.940299" x2="15.4028" y2="9.37183" gradientUnits="userSpaceOnUse">
<stop stop-color="#32A071"/>
<stop offset="0.069" stop-color="#2DA771"/>
<stop offset="0.476" stop-color="#15CF74"/>
<stop offset="0.801" stop-color="#06E775"/>
<stop offset="1" stop-color="#00F076"/>
</linearGradient>
</defs>
</svg>
