<svg width="18" height="18" viewBox="0 0 18 18" fill="none" xmlns="http://www.w3.org/2000/svg">
<g clip-path="url(#clip0_3_925)">
<path d="M12.4818 0.470032H4.72594C2.20173 0.470032 0.148193 2.52357 0.148193 5.04778V12.8038C0.148193 15.3279 2.20173 17.3814 4.72594 17.3814H12.4819C15.006 17.3814 17.0596 15.3279 17.0596 12.8038V5.04778C17.0596 2.52357 15.006 0.470032 12.4818 0.470032V0.470032ZM8.60387 13.5498C6.05411 13.5498 3.9798 11.4755 3.9798 8.92571C3.9798 6.37595 6.05411 4.30164 8.60387 4.30164C11.1536 4.30164 13.2279 6.37595 13.2279 8.92571C13.2279 11.4755 11.1536 13.5498 8.60387 13.5498V13.5498ZM13.3385 5.39215C12.585 5.39215 11.9722 4.77928 11.9722 4.02579C11.9722 3.27229 12.585 2.6593 13.3385 2.6593C14.092 2.6593 14.705 3.27229 14.705 4.02579C14.705 4.77928 14.092 5.39215 13.3385 5.39215Z" fill="#BBBBBB"/>
<path d="M8.60385 5.29315C6.60089 5.29315 4.97119 6.92272 4.97119 8.92581C4.97119 10.9288 6.60089 12.5585 8.60385 12.5585C10.6069 12.5585 12.2365 10.9288 12.2365 8.92581C12.2365 6.92272 10.6069 5.29315 8.60385 5.29315V5.29315Z" fill="#BBBBBB"/>
<path d="M13.3386 3.65094C13.1319 3.65094 12.9636 3.81919 12.9636 4.02588C12.9636 4.23258 13.1319 4.40082 13.3386 4.40082C13.5454 4.40082 13.7136 4.23271 13.7136 4.02588C13.7136 3.81906 13.5454 3.65094 13.3386 3.65094Z" fill="#BBBBBB"/>
</g>
<defs>
<clipPath id="clip0_3_925">
<rect width="16.9114" height="16.9114" fill="white" transform="translate(0.148193 0.470032)"/>
</clipPath>
</defs>
</svg>
