<svg width="19" height="20" viewBox="0 0 19 20" fill="none" xmlns="http://www.w3.org/2000/svg">
<g clip-path="url(#clip0_3_927)">
<path d="M18.4737 4.20557C17.7876 4.50652 17.0566 4.706 16.2944 4.80285C17.0785 4.33471 17.6769 3.59907 17.9583 2.71237C17.2272 3.14823 16.4201 3.45609 15.5599 3.6279C14.8658 2.88879 13.8765 2.43103 12.7972 2.43103C10.7033 2.43103 9.01753 4.13063 9.01753 6.21418C9.01753 6.51398 9.0429 6.80224 9.10517 7.07667C5.9608 6.92331 3.17849 5.41627 1.3094 3.12055C0.983086 3.6867 0.79168 4.33471 0.79168 5.03231C0.79168 6.34217 1.46621 7.50329 2.47167 8.17552C1.86402 8.16399 1.26789 7.98757 0.762854 7.70969C0.762854 7.72122 0.762854 7.73621 0.762854 7.7512C0.762854 9.58916 2.07387 11.1158 3.79307 11.4675C3.4852 11.5516 3.14967 11.592 2.80144 11.592C2.5593 11.592 2.31486 11.5782 2.0854 11.5274C2.57545 13.0252 3.96602 14.1264 5.6195 14.1622C4.33269 15.1688 2.69882 15.7753 0.930046 15.7753C0.619876 15.7753 0.322389 15.7614 0.0249023 15.7234C1.70028 16.8038 3.68583 17.4207 5.82705 17.4207C12.7869 17.4207 16.5919 11.6554 16.5919 6.65811C16.5919 6.49092 16.5861 6.32949 16.5781 6.16922C17.3287 5.63651 17.9594 4.9712 18.4737 4.20557Z" fill="#BBBBBB"/>
</g>
<defs>
<clipPath id="clip0_3_927">
<rect width="18.4488" height="18.4488" fill="white" transform="translate(0.0249023 0.701477)"/>
</clipPath>
</defs>
</svg>
