<svg width="21" height="14" viewBox="0 0 21 14" fill="none" xmlns="http://www.w3.org/2000/svg">
<path d="M19.5931 1.98452L19.6181 2.14405C19.3766 1.30653 18.7245 0.66028 17.8959 0.425058L17.8784 0.420988C16.3204 0.00751849 10.0506 0.00751857 10.0506 0.00751857C10.0506 0.00751857 3.79668 -0.000620648 2.22279 0.420988C1.37838 0.66028 0.725508 1.30653 0.488175 2.12696L0.484012 2.14405C-0.0980791 5.11566 -0.102243 8.68631 0.509827 11.8679L0.484012 11.7068C0.725508 12.5443 1.37755 13.1905 2.20613 13.4257L2.22362 13.4298C3.78003 13.8441 10.0514 13.8441 10.0514 13.8441C10.0514 13.8441 16.3046 13.8441 17.8793 13.4298C18.7245 13.1905 19.3774 12.5443 19.6147 11.7238L19.6189 11.7068C19.8837 10.3247 20.0353 8.73433 20.0353 7.10975C20.0353 7.05034 20.0353 6.99011 20.0344 6.92988C20.0353 6.87453 20.0353 6.8086 20.0353 6.74268C20.0353 5.11729 19.8837 3.52689 19.5931 1.98452ZM8.05036 9.89742V3.96152L13.2684 6.93395L8.05036 9.89742Z" fill="#BBBBBB"/>
</svg>
